<?xml version="1.0" encoding="UTF-8"?>
<svg version="1.1" xmlns="http://www.w3.org/2000/svg" width="1024" height="1024">
<path d="M0 0 C1.55297969 -0.01036878 3.10594919 -0.02236723 4.65890503 -0.0358429 C8.82920876 -0.06655335 12.99916482 -0.07217493 17.16956806 -0.07091117 C20.68201729 -0.07175057 24.19439453 -0.08405808 27.7068212 -0.09586078 C36.01781091 -0.12312042 44.32862348 -0.12859839 52.63964844 -0.12109375 C61.13305677 -0.11388166 69.62562928 -0.14714128 78.11885667 -0.20015115 C85.4758644 -0.24436441 92.83260665 -0.26060949 100.18974471 -0.25611526 C104.55466465 -0.25382533 108.91891038 -0.26145399 113.28369904 -0.2971859 C132.56507931 -0.44361402 149.71941417 0.56476778 168.27044678 6.16056824 C172.94411228 7.50483752 176.07713246 7.95404977 180.75683594 6.56518555 C183.6332421 4.19017764 183.6332421 4.19017764 185.75683594 1.56518555 C187.91804977 -0.59602828 192.95297093 0.36467449 195.95483398 0.34057617 C196.92069931 0.3291861 197.88656464 0.31779602 198.88169861 0.30606079 C208.99649178 0.19535729 219.11202335 0.14796644 229.22729492 0.10522461 C234.03006687 0.08294249 238.83206263 0.04116777 243.63452148 -0.01782227 C249.42589047 -0.08882851 255.21652837 -0.12559604 261.00831032 -0.13789368 C263.21677345 -0.14830926 265.42521383 -0.17076872 267.63342857 -0.20549011 C270.72710976 -0.25161644 273.81791725 -0.25370542 276.91186523 -0.24536133 C277.82379639 -0.26895721 278.73572754 -0.2925531 279.67529297 -0.31686401 C283.27377017 -0.26990999 285.75200678 -0.22045094 288.64727211 2.04324341 C292.2950665 6.13110265 293.97206012 10.05771795 295.06933594 15.37768555 C295.30233398 16.34931641 295.30233398 16.34931641 295.54003906 17.34057617 C300.83633273 40.54879865 298.91181925 65.86042464 298.89116144 89.52353168 C298.88857192 93.43903332 298.89099327 97.35453301 298.89254761 101.27003479 C298.89435076 107.83790516 298.89201256 114.40576418 298.88720703 120.97363281 C298.88177033 128.48934702 298.88353037 136.00503405 298.88903344 143.5207476 C298.89362084 150.0557889 298.89418795 156.59082217 298.89159477 163.12586457 C298.89006221 166.99288981 298.88975241 170.85990245 298.89313126 174.7269268 C298.90393417 189.15271039 298.85684186 203.56869863 298.33447266 217.98730469 C298.29889315 219.0103366 298.26331364 220.03336851 298.22665596 221.08740139 C297.02108343 250.13110528 297.02108343 250.13110528 289.50683594 259.31518555 C275.27728741 270.95754344 255.1435072 269.20495346 237.75683594 269.56518555 C237.75683594 270.22518555 237.75683594 270.88518555 237.75683594 271.56518555 C238.30726563 271.81913086 238.85769531 272.07307617 239.42480469 272.3347168 C246.50455554 276.07026373 252.77916391 281.26070689 258.27246094 287.04174805 C260.27151104 289.09340473 262.5108013 290.79200031 264.75683594 292.56518555 C265.58183594 293.49331055 266.40683594 294.42143555 267.25683594 295.37768555 C269.50170202 297.82342985 269.50170202 297.82342985 272.13671875 297.57788086 C275.76980549 296.17366507 277.18582737 293.72514406 279.17871094 290.54956055 C279.797967 289.60479607 279.797967 289.60479607 280.42973328 288.64094543 C281.32813358 287.26651798 282.21959691 285.8875372 283.10494995 284.50466919 C284.53174374 282.27628422 285.97572137 280.05997821 287.42504883 277.84619141 C288.95980482 275.50163133 290.49345952 273.15642968 292.02186584 270.807724 C297.13455901 262.95400729 302.37188932 255.18721719 307.63180542 247.43161011 C309.72052314 244.3518315 311.80589448 241.26979322 313.89137268 238.18782043 C314.93595434 236.64421247 315.98074353 235.10074493 317.02574158 233.55741882 C320.23185406 228.82191352 323.43248988 224.08276054 326.62864685 219.3405304 C328.7312021 216.22100697 330.83528309 213.10251413 332.93948364 209.98410034 C333.92884658 208.51705995 334.91753439 207.04956398 335.90548706 205.58157349 C354.60667011 177.79733828 354.60667011 177.79733828 371.94433594 174.3425293 C398.44292715 169.78048052 425.98264562 171.35051498 452.75683594 171.56518555 C452.9375061 170.14496094 452.9375061 170.14496094 453.12182617 168.69604492 C453.28884033 167.44629883 453.45585449 166.19655273 453.62792969 164.90893555 C453.87047485 163.05558594 453.87047485 163.05558594 454.11791992 161.16479492 C455.37188536 154.10003895 457.90852745 148.52619051 463.69433594 144.12768555 C478.46206025 135.42922563 498.92772603 137.41370769 515.44433594 137.43237305 C517.55460623 137.43169821 519.66487645 137.43072669 521.77514648 137.42947388 C526.18278753 137.42800537 530.59040821 137.43012414 534.99804688 137.43481445 C540.6229769 137.4405112 546.2478592 137.43722766 551.87278748 137.43124199 C556.22587437 137.42761347 560.57895011 137.42878547 564.93203735 137.43136978 C567.00509649 137.43203272 569.07815668 137.43123298 571.1512146 137.42889023 C590.72204541 137.41162232 590.72204541 137.41162232 598.58164978 138.32745361 C607.46237993 139.29805245 615.13783714 138.06545636 623.69433594 135.69018555 C636.67105749 132.17478075 649.20488905 130.25472631 662.63183594 129.44018555 C663.6456282 129.37714737 663.6456282 129.37714737 664.67990112 129.31283569 C676.71624564 128.57224914 688.69945616 128.25729902 700.75683594 128.56518555 C701.6459668 128.58452148 702.53509766 128.60385742 703.45117188 128.6237793 C738.27486801 129.4691957 777.56252993 134.0663036 803.75683594 159.56518555 C819.61806653 176.35942971 833.81381874 203.58355567 833.89943695 226.98943233 C833.90574489 228.07205662 833.91205283 229.1546809 833.91855192 230.27011198 C833.92041392 231.45375808 833.92227592 232.63740417 833.92419434 233.85691833 C833.92998772 235.11877474 833.93578111 236.38063115 833.94175005 237.68072563 C833.9575688 241.18092561 833.96710603 244.6811186 833.97551489 248.1813432 C833.98353058 251.18395514 833.99521841 254.18654831 834.0069297 257.18914776 C834.04877967 267.93816712 834.07603157 278.68720852 834.10058594 289.4362793 C834.10354829 290.70855526 834.10354829 290.70855526 834.10657048 292.00653377 C834.14572635 308.84792985 834.17942235 325.68933339 834.20165253 342.53076077 C834.20662177 346.23111927 834.21166612 349.93147766 834.21679688 353.63183594 C834.21870288 355.01138383 834.21870288 355.01138383 834.22064739 356.41880137 C834.24202464 371.32958355 834.29104116 386.24014591 834.35104102 401.15081739 C834.41212977 416.45815036 834.44683518 431.76536976 834.45612574 447.07282311 C834.46204054 455.66807723 834.47983216 464.26295832 834.5275116 472.85809135 C834.56806312 480.174906 834.58500903 487.49128669 834.57085878 494.80820876 C834.56438162 498.5419088 834.56930844 502.27468405 834.60473251 506.00824165 C834.64282016 510.05495156 834.62676424 514.09963743 834.60534668 518.14646912 C834.63490834 519.91859218 834.63490834 519.91859218 834.6650672 521.72651571 C834.56146554 529.45164541 834.56146554 529.45164541 832.28676701 532.5996381 C822.8296859 541.05767641 808.53782281 541.45251026 796.50292969 542.109375 C795.72236206 542.15197858 794.94179443 542.19458216 794.13757324 542.23847675 C785.34494662 542.68337428 776.55888519 542.72928405 767.75683594 542.7331543 C765.98396785 542.73638451 764.21110001 542.73974974 762.43823242 542.74324036 C758.74738957 542.74917142 755.05656992 542.75108662 751.36572266 542.75048828 C747.64073815 542.75040723 743.91587717 542.75732697 740.19091797 542.77099609 C704.68357039 542.89896412 704.68357039 542.89896412 688.81933594 541.7409668 C687.83263916 541.67161423 686.84594238 541.60226166 685.8293457 541.5308075 C676.38745299 540.71191951 665.32261855 539.1157611 658.32714844 532.1394043 C644.66217224 515.19968528 649.42969799 482.63528035 649.38505054 462.11943746 C649.3729854 457.63943961 649.34915377 453.15950441 649.32643127 448.67955017 C649.28505478 440.21237383 649.25251238 431.74519154 649.22395712 423.2779631 C649.17271946 408.1098917 649.11043756 392.94187046 649.03861672 377.77388281 C649.01388105 372.46427177 648.9943686 367.15467578 648.97923458 361.845029 C648.96895926 358.53611805 648.95481461 355.22723107 648.9397583 351.91833878 C648.93365666 350.3962772 648.92916757 348.87420808 648.92650032 347.35213661 C648.91050784 338.71246771 648.64389451 330.16542919 647.75683594 321.56518555 C642.60416378 334.1108221 643.6089175 348.5772512 643.58325195 361.94140625 C643.57692151 363.40060615 643.57015314 364.8598042 643.56298828 366.31900024 C643.54848995 369.42623304 643.53669786 372.53345927 643.52704048 375.64071083 C643.51136492 380.57456902 643.48741986 385.50836733 643.46214294 390.44218445 C643.39152226 404.46027818 643.33130559 418.4784045 643.2800293 432.49658203 C643.25153829 440.26584786 643.21606749 448.03505224 643.17337555 455.80425328 C643.15122557 459.89642881 643.13261052 463.98854877 643.12292671 468.08077431 C642.99380744 520.49204259 642.99380744 520.49204259 634.50683594 532.06518555 C620.95787799 544.38242005 597.78443375 542.20974843 580.75683594 542.56518555 C580.76207275 543.24282959 580.76730957 543.92047363 580.77270508 544.61865234 C581.18438606 606.42812212 581.18438606 606.42812212 570.63183594 622.87768555 C559.70153542 633.09514038 544.41736309 633.62845634 530.25683594 634.6472168 C529.05285156 634.73668579 527.84886719 634.82615479 526.60839844 634.91833496 C523.65809596 635.13711979 520.70759404 635.35264951 517.75683594 635.56518555 C517.73622101 636.1936438 517.71560608 636.82210205 517.69436646 637.46960449 C517.4757462 644.09016314 517.2467984 650.71031074 517.01220703 657.33032227 C516.92629599 659.79149666 516.84290166 662.25276038 516.76220703 664.71411133 C515.25509232 710.50434973 515.25509232 710.50434973 505.75683594 722.56518555 C501.49144162 726.433799 499.10005704 727.68559491 493.40707397 727.73254395 C492.27156097 727.74403473 491.13604797 727.75552551 489.96612549 727.7673645 C488.0882132 727.77846756 488.0882132 727.77846756 486.17236328 727.78979492 C484.85843597 727.801185 483.54450867 727.81257507 482.19076538 727.8243103 C477.8248081 727.86089538 473.4588218 727.88609552 469.09277344 727.90893555 C468.34970585 727.91288141 467.60663827 727.91682728 466.84105349 727.92089272 C459.83088556 727.95732016 452.82070755 727.988761 445.8104763 728.01000214 C436.84880271 728.03755801 427.88792223 728.08827997 418.92657888 728.17047644 C412.62328896 728.22632944 406.32021375 728.25524717 400.01668513 728.26447535 C396.25345376 728.27072458 392.49115189 728.28876883 388.72819138 728.33586121 C385.18362716 728.37966923 381.64049604 728.38997455 378.09570694 728.3752327 C376.18389329 728.37571569 374.27218533 728.41085592 372.36071777 728.44723511 C365.2907502 728.37933604 361.30994866 727.51315058 356.26294899 722.41584015 C342.09198069 705.00309171 345.67608106 672.50227089 345.72949219 651.31518555 C345.73169263 649.78002958 345.73368776 648.2448733 345.73547363 646.7097168 C345.74023348 642.9948665 345.7477509 639.28002808 345.75683594 635.56518555 C332.36943693 635.58008137 318.98241147 635.6217697 305.59520912 635.69727612 C299.37836547 635.73150674 293.16176656 635.75665007 286.94482422 635.76074219 C280.94048715 635.76503342 274.93670179 635.79356567 268.93253708 635.83861732 C266.64656162 635.85156579 264.36052005 635.85590947 262.07451248 635.85133934 C258.86206384 635.84641473 255.65121619 635.87261027 252.43896484 635.90576172 C251.5024408 635.89713608 250.56591675 635.88851044 249.60101318 635.87962341 C242.62756514 635.99956511 237.7287703 638.05746615 231.75683594 641.56518555 C230.62117188 642.21100586 229.48550781 642.85682617 228.31542969 643.5222168 C227.28546875 644.13452148 226.25550781 644.74682617 225.19433594 645.37768555 C178.84008716 672.10074172 124.78249396 678.03060589 72.2098999 677.88324356 C70.1603589 677.87759185 68.11082621 677.8747787 66.0612793 677.87216187 C46.15217125 677.8352202 26.49289939 677.44388347 6.75683594 674.56518555 C5.49726074 674.38826172 4.23768555 674.21133789 2.93994141 674.02905273 C-11.22513233 671.994679 -25.13968459 669.45252599 -38.88989258 665.44482422 C-44.2128443 663.92119125 -48.70178148 663.28875927 -54.24316406 663.56518555 C-54.49582031 664.16202148 -54.74847656 664.75885742 -55.00878906 665.3737793 C-57.85911403 670.43400812 -63.20558444 672.94845598 -68.59863281 674.58081055 C-78.54363179 676.79322035 -88.45395226 677.71891607 -98.62597656 677.7331543 C-99.48391815 677.7364827 -100.34185974 677.7398111 -101.22579956 677.74324036 C-103.02910839 677.74826427 -104.83242637 677.7506501 -106.63574219 677.75048828 C-109.34098315 677.75266369 -112.04580799 677.77083806 -114.75097656 677.78979492 C-151.15360129 677.90952327 -151.15360129 677.90952327 -160.36816406 668.87768555 C-160.98691406 668.11456055 -161.60566406 667.35143555 -162.24316406 666.56518555 C-162.57316406 666.23518555 -162.90316406 665.90518555 -163.24316406 665.56518555 C-163.34705441 664.09154581 -163.38157703 662.61296004 -163.38855839 661.13567924 C-163.39548303 660.17310451 -163.40240767 659.21052978 -163.40954214 658.21878612 C-163.41208626 657.14868112 -163.41463038 656.07857612 -163.41725159 654.9760437 C-163.42375054 653.84898423 -163.43024949 652.72192477 -163.43694538 651.56071198 C-163.45746196 647.75215178 -163.47059596 643.94360239 -163.48364258 640.13500977 C-163.49280264 638.10910642 -163.5027363 636.08320791 -163.51277102 634.05730872 C-163.56042235 624.41153178 -163.59301401 614.76572168 -163.62207031 605.11987305 C-163.62437789 604.35883406 -163.62668547 603.59779507 -163.62906298 602.8136943 C-163.67449953 587.70808058 -163.71303576 572.60245247 -163.73979282 557.49679375 C-163.74578218 554.17356218 -163.75186779 550.85033081 -163.75805664 547.52709961 C-163.75958962 546.70110099 -163.7611226 545.87510237 -163.76270204 545.0240735 C-163.78841016 531.64623049 -163.84528334 518.26870257 -163.91452194 504.89102159 C-163.98499063 491.16244051 -164.02522685 477.43402232 -164.03654236 463.70526326 C-164.04370443 455.99460021 -164.06448055 448.28448425 -164.11956978 440.57400131 C-164.16646064 434.0062282 -164.18629228 427.4390844 -164.17068828 420.87114982 C-164.16357717 417.51966319 -164.17378038 414.17061362 -164.21026611 410.81915474 C-164.24777717 407.18373571 -164.2360532 403.55168585 -164.21192932 399.91622925 C-164.23454993 398.85950858 -164.25717054 397.80278791 -164.28047663 396.71404541 C-164.21043046 392.57259553 -164.13481448 389.71813907 -161.54901874 386.37456155 C-145.19083893 371.50904046 -113.84641076 376.32546282 -93.24316406 376.56518555 C-97.73234695 371.15595975 -97.73234695 371.15595975 -102.86816406 366.37768555 C-139.7644968 334.66224204 -157.93030031 290.31331128 -161.77807617 242.45776367 C-162.25891346 235.98803502 -162.41953959 229.55099721 -162.44628906 223.06518555 C-162.45330338 221.9184436 -162.46031769 220.77170166 -162.46754456 219.59020996 C-162.48493158 215.91516133 -162.49139546 212.24027378 -162.49316406 208.56518555 C-162.49383881 207.3105249 -162.49451355 206.05586426 -162.49520874 204.76318359 C-162.44623062 147.50913696 -152.5217133 90.97205292 -110.86816406 48.81518555 C-89.01353608 27.24891342 -61.57268443 13.05629275 -32.24316406 4.56518555 C-31.09974171 4.23125384 -29.95631935 3.89732214 -28.77824783 3.55327129 C-19.14597304 0.87082532 -9.99098681 -0.02680965 0 0 Z M31.56933594 141.81518555 C29.69073105 145.27540998 28.86807383 147.60615435 29.75683594 151.56518555 C44.79099936 182.33549667 96.12043216 199.47593783 124.90484619 213.80047607 C128.82563634 215.75409715 132.7426362 217.71525343 136.65964603 219.67644024 C140.44214221 221.56935528 144.22661558 223.45828779 148.01174736 225.34592628 C149.81481437 226.24553952 151.61734741 227.14622382 153.41932869 228.04800987 C155.91928618 229.29817364 158.42177212 230.54311989 160.92504883 231.78662109 C161.66313782 232.1569043 162.40122681 232.5271875 163.16168213 232.90869141 C166.33685312 234.47978315 169.30197345 235.79269972 172.75683594 236.56518555 C174.05045153 232.9749223 173.46784459 231.06402394 172.01855469 227.5925293 C171.61588379 226.62009277 171.21321289 225.64765625 170.79833984 224.64575195 C170.35151855 223.60854004 169.90469727 222.57132812 169.44433594 221.50268555 C168.98720215 220.42937988 168.53006836 219.35607422 168.05908203 218.25024414 C150.7013519 178.1220303 123.26454733 140.59055175 81.98730469 122.8972168 C61.985587 115.16090779 43.55237637 124.37320447 31.56933594 141.81518555 Z M-46.24316406 407.56518555 C-46.42507893 412.47611291 -45.94881349 416.34366729 -44.40722656 421.00268555 C-44.00753662 422.21609619 -43.60784668 423.42950684 -43.19604492 424.6796875 C-42.75464485 425.97527216 -42.31198904 427.27042958 -41.86816406 428.56518555 C-41.64452179 429.22658539 -41.42087952 429.88798523 -41.19046021 430.56942749 C-26.15830928 474.91964588 -2.00782819 519.70332697 40.75683594 542.56518555 C53.83987284 548.97821246 67.1950421 554.22186837 81.73339844 549.6237793 C98.36757548 543.1119503 111.99649829 532.04366673 120.94433594 516.50268555 C122.47677819 512.84840017 122.45360767 509.43475713 121.75683594 505.56518555 C120.19571832 502.17893778 118.13034815 499.42781633 115.75683594 496.56518555 C115.23476563 495.9309668 114.71269531 495.29674805 114.17480469 494.64331055 C90.92835332 469.24538174 52.17428285 454.99976648 21.73124695 440.74252319 C-25.84731111 418.45905374 -25.84731111 418.45905374 -41.82910156 408.89331055 C-44.07600135 407.40450968 -44.07600135 407.40450968 -46.24316406 407.56518555 Z " fill="#FEFEFE" transform="translate(176.2431640625,153.434814453125)"/>
<path d="M0 0 C8.25 0 16.5 0 25 0 C25 59.07 25 118.14 25 179 C17.08 179 9.16 179 1 179 C-0.11375 175.514375 -1.2275 172.02875 -2.375 168.4375 C-18.18129994 120.30675382 -44.02671551 76.24999211 -87 48 C-87.92039062 47.39285156 -88.84078125 46.78570312 -89.7890625 46.16015625 C-106.67706762 35.67056434 -127.96054905 27.86413418 -147.91796875 27.83203125 C-148.65646561 27.82870285 -149.39496246 27.82537445 -150.15583801 27.82194519 C-151.71138899 27.81691065 -153.26695065 27.81453578 -154.82250977 27.81469727 C-157.16376239 27.81252205 -159.50453428 27.79436042 -161.84570312 27.77539062 C-186.14723379 27.68184193 -210.2985679 34.52052943 -228 52 C-243.23879922 69.00277598 -249.09415718 90.37141719 -248.25 112.890625 C-247.35362039 129.07027699 -242.50974513 142.83097506 -233 156 C-232.56429687 156.62003906 -232.12859375 157.24007812 -231.6796875 157.87890625 C-208.75484401 187.46156357 -159.47419124 204.96170945 -126.81604004 220.41810608 C-110.31170289 228.23617964 -93.96351595 236.37217202 -77.61816406 244.51586914 C-74.19447398 246.22100459 -70.76794741 247.92023306 -67.33886719 249.61450195 C-63.1191537 251.69946108 -58.90461596 253.79455792 -54.69340515 255.89663506 C-53.11661103 256.68172683 -51.53815114 257.46348421 -49.95783997 258.24147224 C-17.53917932 274.214811 8.06060547 297.51527316 26 329 C26.3619043 329.6295459 26.72380859 330.2590918 27.09667969 330.90771484 C31.74429764 339.06382871 35.77159534 347.35192554 39.125 356.125 C39.43252197 356.90633301 39.74004395 357.68766602 40.05688477 358.49267578 C41.83595747 363.37184709 42.50208107 366.86403818 41 372 C39.42868324 374.97614614 37.5652753 377.69132413 35.625 380.4375 C35.08407715 381.22535889 34.5431543 382.01321777 33.98583984 382.82495117 C32.3352535 385.22473129 30.66858697 387.61271443 29 390 C27.64203879 391.96679919 26.28829256 393.93644075 24.93505859 395.90649414 C24.05420247 397.1880528 23.17168661 398.46847211 22.28759766 399.74780273 C18.46270243 405.29070546 14.72625744 410.89044465 11 416.5 C6.88106593 422.70064758 2.73572701 428.87849874 -1.5 435 C-7.52380596 443.71059518 -13.37980344 452.53138344 -19.23925781 461.35302734 C-20.99646375 463.99468385 -22.75898276 466.63271194 -24.5234375 469.26953125 C-25.35500366 470.51307373 -25.35500366 470.51307373 -26.20336914 471.78173828 C-27.2538377 473.3522613 -28.3050728 474.92227195 -29.35717773 476.49169922 C-29.82325439 477.18924316 -30.28933105 477.88678711 -30.76953125 478.60546875 C-31.17792236 479.21543701 -31.58631348 479.82540527 -32.00708008 480.45385742 C-33.93187776 483.4510897 -34.1342747 485.36024074 -34.16113281 488.90527344 C-34.17554413 490.43761627 -34.17554413 490.43761627 -34.19024658 492.00091553 C-34.19449646 493.10920715 -34.19874634 494.21749878 -34.203125 495.359375 C-34.20882507 496.4965094 -34.21452515 497.6336438 -34.22039795 498.80523682 C-34.22985845 501.21617703 -34.23638608 503.62713023 -34.24023438 506.03808594 C-34.24992353 509.72093422 -34.28093104 513.40322069 -34.3125 517.0859375 C-34.31903156 519.42708002 -34.32428143 521.76822653 -34.328125 524.109375 C-34.3466452 525.75966705 -34.3466452 525.75966705 -34.36553955 527.44329834 C-34.34937294 533.01426844 -34.27024019 537.24455054 -31 542 C-26.64238619 544.77302697 -21.04272191 544.62791566 -16 545 C-45.02030992 575.74003199 -98.78601373 586.15615838 -138.9140625 587.91015625 C-140.27595947 587.9436342 -141.6379552 587.97320265 -143 588 C-143.86979492 588.02046387 -144.73958984 588.04092773 -145.63574219 588.06201172 C-183.64207091 588.83961838 -222.67077477 583.38737401 -258.3828125 570.015625 C-264.6158659 567.71186356 -270.95359285 565.94635813 -277.375 564.25 C-279.06882812 563.77626953 -279.06882812 563.77626953 -280.796875 563.29296875 C-289.93285539 560.87831032 -300.26021967 558.49305565 -308.9375 563.3125 C-316.9029382 569.52408025 -319.20011415 578.66704718 -322 588 C-329.92 588 -337.84 588 -346 588 C-346 520.68 -346 453.36 -346 384 C-338.08 384 -330.16 384 -322 384 C-321.05125 387.34125 -320.1025 390.6825 -319.125 394.125 C-309.08001631 428.77583058 -297.55183191 464.57515194 -276 494 C-275.30648437 494.97582031 -274.61296875 495.95164062 -273.8984375 496.95703125 C-268.42898806 504.48477174 -262.40505971 511.27656013 -256 518 C-255.28328125 518.78117188 -254.5665625 519.56234375 -253.828125 520.3671875 C-233.73853755 541.58964643 -205.53682651 553.75308471 -177 558 C-175.26943359 558.27650391 -175.26943359 558.27650391 -173.50390625 558.55859375 C-141.53842932 562.39985577 -107.77816622 557.6735682 -81.75 537.75 C-64.8488988 524.26326268 -54.06394911 504.3272089 -51.27734375 482.91015625 C-49.40363088 456.49344388 -51.63383343 433.94247948 -69.27734375 413.03515625 C-72.75592012 409.12013796 -76.50464453 405.88689221 -80.6875 402.75 C-81.42242676 402.19626709 -82.15735352 401.64253418 -82.91455078 401.07202148 C-112.9686705 378.87087463 -148.87041902 363.80108075 -182.6875 348.1875 C-202.42671719 339.05686217 -221.34336811 329.19734372 -240 318 C-240.76328613 317.54625 -241.52657227 317.0925 -242.31298828 316.625 C-257.56425141 307.53460801 -272.08388585 297.20536024 -285 285 C-286.36997848 283.80671034 -287.74483093 282.6189883 -289.125 281.4375 C-312.32297185 261.06403171 -327.25864914 234.70518354 -335 205 C-335.33257812 203.80632812 -335.66515625 202.61265625 -336.0078125 201.3828125 C-338.7879446 189.97153324 -339.40788353 178.44640717 -339.375 166.75 C-339.37445618 166.0148819 -339.37391235 165.27976379 -339.37335205 164.52236938 C-339.25774871 130.2274823 -331.11381846 96.19343706 -311 68 C-310.61231445 67.4529541 -310.22462891 66.9059082 -309.82519531 66.34228516 C-286.33654063 33.51395656 -249.268295 12.79943831 -210 5 C-202.8147451 3.8676693 -195.59049668 3.05201477 -188.35571289 2.30957031 C-186.07095823 2.07012872 -186.07095823 2.07012872 -184.20336914 1.4765625 C-180.7557805 0.73089014 -177.28551411 0.81690237 -173.7734375 0.796875 C-172.96171082 0.78981537 -172.14998413 0.78275574 -171.31365967 0.77548218 C-137.89981614 0.55184403 -107.17579164 4.45227971 -75.1484375 14.42578125 C-68.08311367 16.61611518 -60.94636169 18.55495945 -53.81567383 20.51953125 C-48.36431441 22.02886391 -42.98533174 23.63372606 -37.625 25.4375 C-29.91809309 27.83750323 -22.20627385 28.30190728 -14.70703125 24.95703125 C-5.89758883 20.018099 -3.31728599 8.84609597 0 0 Z " fill="#000000" transform="translate(401,195)"/>
<path d="M0 0 C18.81 0 37.62 0 57 0 C57 97.68 57 195.36 57 296 C78.45 296 99.9 296 122 296 C122 312.5 122 329 122 346 C100.55 346 79.1 346 57 346 C57 378.67 57 411.34 57 445 C39.51 445 22.02 445 4 445 C4 412.33 4 379.66 4 346 C-63.65 346 -131.3 346 -201 346 C-201 296.74182372 -201 296.74182372 -185.43359375 273.7421875 C-184.72499962 272.69389267 -184.72499962 272.69389267 -184.00209045 271.62442017 C-182.48099869 269.37431668 -180.95925029 267.12465816 -179.4375 264.875 C-178.34369905 263.25719591 -177.24995025 261.63935655 -176.15625 260.02148438 C-173.89326638 256.67401838 -171.63006284 253.32670125 -169.36669922 249.97949219 C-164.59196968 242.9179411 -159.81999142 235.85453136 -155.04794312 228.79116821 C-152.44613319 224.94013251 -149.84416116 221.08920633 -147.2421875 217.23828125 C-146.72607407 216.47442612 -146.20996063 215.71057098 -145.6782074 214.92356873 C-142.57359916 210.32875338 -139.46879312 205.73407177 -136.36383057 201.13949585 C-125.07134464 184.42939415 -113.7824225 167.71689835 -102.5 151 C-90.70357089 133.52151021 -78.89973316 116.04803763 -67.09277344 98.57666016 C-62.93699349 92.42707145 -58.78171796 86.27714195 -54.62646484 80.12719727 C-52.55137881 77.05599711 -50.47617711 73.98487515 -48.40087891 70.91381836 C-43.60084408 63.81049417 -38.80154736 56.70667484 -34.00488281 49.60107422 C-13.61776913 19.40036154 -13.61776913 19.40036154 -6 8.25 C-5.48405273 7.49380371 -4.96810547 6.73760742 -4.43652344 5.95849609 C-1.12420244 1.12420244 -1.12420244 1.12420244 0 0 Z " fill="#010101" transform="translate(577,384)"/>
<path d="M0 0 C2.28820817 0.01605589 4.57463833 0.00006173 6.86279297 -0.01904297 C20.25670577 -0.03921912 33.69083321 1.40466834 46.29638672 6.20361328 C47.34850342 6.59262817 47.34850342 6.59262817 48.421875 6.98950195 C63.8015857 12.83775094 75.37650431 21.56387925 84.42138672 35.39111328 C84.86869141 36.01115234 85.31599609 36.63119141 85.77685547 37.27001953 C95.63311506 51.5281038 99.43893986 69.67541431 102.60888672 86.39111328 C102.77606201 87.25631592 102.9432373 88.12151855 103.11547852 89.01293945 C105.72645558 103.4937061 105.56405782 118.16183038 105.53491211 132.82055664 C105.53462942 134.83259581 105.53478956 136.84463508 105.53535461 138.85667419 C105.53563941 144.27297777 105.52979441 149.68925882 105.52278066 155.1055572 C105.51649386 160.78298116 105.51593913 166.46040574 105.51475525 172.13783264 C105.51165755 182.86837612 105.50346536 193.59890931 105.49340576 204.32944828 C105.48009645 218.84409788 105.47473209 233.35875033 105.46890354 247.8734045 C105.45952431 270.71264846 105.43959499 293.55187071 105.42138672 316.39111328 C74.40138672 316.39111328 43.38138672 316.39111328 11.42138672 316.39111328 C11.38400391 303.78279297 11.34662109 291.17447266 11.30810547 278.18408203 C11.27779461 270.14956625 11.24674476 262.1150643 11.21240234 254.08056641 C11.15814551 241.35540082 11.10672417 228.63027356 11.07495117 215.9050293 C11.05178577 206.63275857 11.01818622 197.36059056 10.97268516 188.08840162 C10.94899951 183.1908846 10.93011107 178.29346773 10.92377281 173.395895 C12.97964734 124.79202081 12.97964734 124.79202081 -6.20361328 82.40673828 C-16.96520167 73.27354814 -32.23430559 73.58182238 -45.57861328 74.39111328 C-57.8459561 76.02860927 -68.82444893 81.66136565 -76.57861328 91.39111328 C-91.40275101 112.4048701 -92.69294062 138.54755105 -92.78393555 163.35888672 C-92.79353536 165.03551463 -92.80354661 166.71214022 -92.81393433 168.38876343 C-92.84076185 172.90442279 -92.86189005 177.42009237 -92.88193631 181.93578625 C-92.90393399 186.66832994 -92.93125469 191.40084296 -92.95799255 196.13336182 C-93.00773439 205.07901866 -93.0527412 214.02469271 -93.09601492 222.97038293 C-93.15482211 235.07003556 -93.22100853 247.16964773 -93.2867651 259.26926422 C-93.39004993 278.30985324 -93.48353148 297.35047744 -93.57861328 316.39111328 C-124.59861328 316.39111328 -155.61861328 316.39111328 -187.57861328 316.39111328 C-187.57861328 214.75111328 -187.57861328 113.11111328 -187.57861328 8.39111328 C-160.18861328 8.39111328 -132.79861328 8.39111328 -104.57861328 8.39111328 C-96.57861328 35.39111328 -96.57861328 35.39111328 -93.57861328 47.39111328 C-92.91861328 47.39111328 -92.25861328 47.39111328 -91.57861328 47.39111328 C-90.2327773 45.87275447 -90.2327773 45.87275447 -88.89111328 43.89111328 C-82.31231082 34.92572854 -75.11509263 28.28484498 -66.24755859 21.64257812 C-64.81424918 20.56780573 -63.39427207 19.47529388 -61.97705078 18.37939453 C-43.96647586 4.9768764 -22.10741638 -0.18356169 0 0 Z " fill="#000000" transform="translate(863.57861328125,330.60888671875)"/>
<path d="M0 0 C0.66 0 1.32 0 2 0 C2.09455276 7.92142052 2.1067224 15.82595886 1.69750977 23.73930359 C-0.54131413 67.44621684 -0.27887492 111.27032044 -0.51740927 155.02214885 C-0.57708837 165.93576138 -0.64284239 176.84933751 -0.70815182 187.76291752 C-0.81020496 204.84192026 -0.90449553 221.92095647 -1 239 C-50.83 239 -100.66 239 -152 239 C-147.7575608 232.33330983 -143.51549436 225.69109496 -139.125 219.125 C-138.5467749 218.2589917 -137.9685498 217.3929834 -137.37280273 216.50073242 C-127.50299251 201.74529752 -117.53798856 187.05353729 -107.590271 172.35058594 C-105.08711802 168.65066548 -102.58461178 164.95030767 -100.08203125 161.25 C-93.91685912 152.13464007 -87.75009057 143.02036047 -81.58325195 133.90612793 C-74.9001525 124.02884081 -68.21776892 114.15107006 -61.5368042 104.27233887 C-60.48495506 102.71706092 -59.43307362 101.16180481 -58.38116455 99.60656738 C-55.02561699 94.64539975 -51.67063045 89.68385348 -48.31634521 84.72183228 C-47.25177403 83.1471549 -46.18704288 81.57258565 -45.12213135 79.99813843 C-32.11276637 61.14060415 -32.11276637 61.14060415 -19.9375 41.75 C-19.53249268 41.05874023 -19.12748535 40.36748047 -18.71020508 39.65527344 C-12.03670478 28.04760813 -6.43914313 15.85652655 -1.875 3.2734375 C-1 1 -1 1 0 0 Z " fill="#FCFCFC" transform="translate(582,441)"/>
</svg>
